# Blender 4.5.1 LTS
# www.blender.org
mtllib Cylinder.mtl
o Cylinder
v -0.736777 -1.097374 -0.502922
v 0.280337 0.417542 -1.321768
v -0.469051 -1.252989 -0.458269
v 0.548063 0.261927 -1.277115
v -0.205192 -1.360098 -0.328679
v 0.811922 0.154818 -1.147525
v 0.028971 -1.408216 -0.126839
v 1.046085 0.106700 -0.945686
v 0.210517 -1.392634 0.127493
v 1.227632 0.122282 -0.691353
v 0.321675 -1.314876 0.409423
v 1.338789 0.200040 -0.409423
v 0.351565 -1.182554 0.691353
v 1.368679 0.332362 -0.127493
v 0.297259 -1.008621 0.945686
v 1.314373 0.506295 0.126839
v 0.164075 -0.810102 1.147525
v 1.181189 0.704814 0.328679
v -0.034951 -0.606430 1.277115
v 0.982163 0.908486 0.458269
v -0.280337 -0.417542 1.321768
v 0.736777 1.097374 0.502922
v -0.548063 -0.261927 1.277115
v 0.469051 1.252989 0.458269
v -0.811922 -0.154818 1.147525
v 0.205192 1.360098 0.328679
v -1.046085 -0.106700 0.945686
v -0.028971 1.408216 0.126839
v -1.227632 -0.122282 0.691353
v -0.210517 1.392634 -0.127493
v -1.338789 -0.200040 0.409423
v -0.321675 1.314876 -0.409423
v -1.368679 -0.332362 0.127493
v -0.351565 1.182554 -0.691353
v -1.314373 -0.506295 -0.126839
v -0.297259 1.008621 -0.945686
v -1.181189 -0.704814 -0.328679
v -0.164075 0.810102 -1.147525
v -0.982163 -0.908486 -0.458269
v 0.034951 0.606430 -1.277115
v 0.479386 0.714010 -1.196421
v 0.677353 0.598943 -1.163402
v 0.872460 0.519742 -1.067579
v 1.045610 0.484161 -0.918331
v 1.179852 0.495684 -0.730267
v 1.262047 0.553181 -0.521797
v 1.284148 0.651025 -0.313327
v 1.243993 0.779638 -0.125264
v 1.145511 0.926431 0.023985
v 0.998343 1.077033 0.119807
v 0.816895 1.216705 0.152826
v 0.618928 1.331772 0.119807
v 0.423821 1.410973 0.023985
v 0.250671 1.446553 -0.125264
v 0.116429 1.435031 -0.313327
v 0.034235 1.377534 -0.521797
v 0.012134 1.279690 -0.730267
v 0.052289 1.151077 -0.918331
v 0.150771 1.004284 -1.067579
v 0.297938 0.853681 -1.163402
v -0.800126 -1.191729 -0.224285
v -0.588002 -1.315026 -0.188905
v -0.378943 -1.399890 -0.086230
v -0.193411 -1.438015 0.073691
v -0.049569 -1.425668 0.275203
v 0.038504 -1.364059 0.498582
v 0.062186 -1.259218 0.721960
v 0.019159 -1.121408 0.923473
v -0.086365 -0.964118 1.083394
v -0.244057 -0.802745 1.186069
v -0.438481 -0.653086 1.221449
v -0.650606 -0.529789 1.186069
v -0.859665 -0.444925 1.083394
v -1.045197 -0.406800 0.923473
v -1.189039 -0.419146 0.721960
v -1.277112 -0.480755 0.498582
v -1.300794 -0.585597 0.275203
v -1.257767 -0.723407 0.073691
v -1.152242 -0.880697 -0.086230
v -0.994550 -1.042069 -0.188905
v -0.276336 -1.346567 0.139870
v -0.536079 -1.223303 0.045282
v -0.803370 -1.067941 0.000702
v -1.052047 -0.895688 0.010490
v -0.205092 -1.241945 0.421922
v -0.488930 -1.087204 0.355638
v -0.785226 -0.914983 0.306220
v -1.064975 -0.742141 0.278504
v -0.173633 -1.102674 0.718659
v -0.453382 -0.929832 0.690943
v -0.749677 -0.757610 0.641525
v -1.033516 -0.602869 0.575242
v -0.186561 -0.949127 0.986673
v -0.435238 -0.776874 0.996462
v -0.702529 -0.621511 0.951881
v -0.962272 -0.498247 0.857294
v 0.124604 1.218886 -0.703056
v 0.269607 1.035711 -0.861827
v 0.455050 0.845940 -0.982572
v 0.662779 0.668149 -1.053469
v 0.260691 1.262952 -0.452492
v 0.444605 1.061891 -0.596022
v 0.650170 0.851528 -0.729868
v 0.857262 0.652456 -0.840928
v 0.439019 1.278259 -0.202666
v 0.646111 1.079187 -0.313727
v 0.851676 0.868824 -0.447573
v 1.035591 0.667763 -0.591103
v 0.633503 1.262566 0.009874
v 0.841232 1.084775 -0.061023
v 1.026674 0.895004 -0.181767
v 1.171677 0.711829 -0.340539
vn -0.0955 -0.4229 -0.9011
vn 0.1736 -0.5559 -0.8129
vn 0.4257 -0.6345 -0.6451
vn 0.6361 -0.6510 -0.4142
vn 0.7843 -0.6037 -0.1427
vn 0.8557 -0.4974 0.1427
vn 0.8434 -0.3423 0.4142
vn 0.7484 -0.1538 0.6451
vn 0.5803 0.0498 0.8129
vn 0.3553 0.2485 0.9011
vn 0.0955 0.4229 0.9011
vn -0.1736 0.5559 0.8129
vn -0.4257 0.6345 0.6451
vn -0.6361 0.6510 0.4142
vn -0.7843 0.6037 0.1427
vn -0.8557 0.4974 -0.1427
vn -0.8434 0.3423 -0.4142
vn -0.7484 0.1538 -0.6451
vn 0.6070 0.6994 0.3773
vn -0.5803 -0.0498 -0.8129
vn -0.3553 -0.2485 -0.9011
vn 0.9200 0.0777 -0.3842
vn -0.2243 0.9585 -0.1759
vn 0.0887 0.3368 -0.9374
vn 0.6584 0.0552 -0.7507
vn 0.8938 0.4059 0.1906
vn 0.2782 0.2096 -0.9374
vn 0.0373 0.9810 0.1906
vn -0.1981 0.6303 -0.7507
vn 0.9721 0.1553 -0.1759
vn 0.4175 0.8266 0.3773
vn -0.2764 0.8809 -0.3842
vn 0.8119 0.0432 -0.5822
vn 0.7711 0.5544 0.3130
vn -0.1162 0.9930 0.0221
vn -0.0754 0.4818 -0.8730
vn 0.4745 0.1126 -0.8730
vn 0.9631 0.2684 0.0221
vn 0.2212 0.9236 0.3130
vn -0.2674 0.7678 -0.5822
vn -0.6073 -0.7003 -0.3752
vn -0.0388 -0.9812 -0.1889
vn 0.1961 -0.6313 0.7503
vn -0.6586 -0.0575 0.7503
vn -0.4182 -0.8272 -0.3752
vn -0.8935 -0.4074 -0.1889
vn 0.2742 -0.8814 0.3846
vn -0.2792 -0.2115 0.9367
vn -0.9716 -0.1573 0.1768
vn 0.1144 -0.9932 -0.0208
vn 0.0737 -0.4831 0.8725
vn -0.8118 -0.0455 0.5822
vn -0.7711 -0.5556 -0.3110
vn -0.2224 -0.9240 -0.3110
vn 0.2652 -0.7686 0.5822
vn -0.4750 -0.1147 0.8725
vn -0.9626 -0.2702 -0.0208
vn 0.2222 -0.9588 0.1768
vn -0.0901 -0.3384 0.9367
vn -0.9196 -0.0799 0.3846
vn -0.5086 -0.7575 0.4094
vn 0.5086 0.7575 -0.4094
vt 1.000000 1.000000
vt 0.950000 0.500000
vt 1.000000 0.500000
vt 0.950000 1.000000
vt 0.900000 0.500000
vt 0.900000 1.000000
vt 0.850000 0.500000
vt 0.850000 1.000000
vt 0.800000 0.500000
vt 0.800000 1.000000
vt 0.750000 0.500000
vt 0.750000 1.000000
vt 0.700000 0.500000
vt 0.700000 1.000000
vt 0.650000 0.500000
vt 0.650000 1.000000
vt 0.600000 0.500000
vt 0.600000 1.000000
vt 0.550000 0.500000
vt 0.550000 1.000000
vt 0.500000 0.500000
vt 0.500000 1.000000
vt 0.450000 0.500000
vt 0.450000 1.000000
vt 0.400000 0.500000
vt 0.400000 1.000000
vt 0.350000 0.500000
vt 0.350000 1.000000
vt 0.300000 0.500000
vt 0.300000 1.000000
vt 0.250000 0.500000
vt 0.250000 1.000000
vt 0.200000 0.500000
vt 0.200000 1.000000
vt 0.150000 0.500000
vt 0.150000 1.000000
vt 0.100000 0.500000
vt 0.100000 1.000000
vt 0.050000 0.500000
vt 0.050000 1.000000
vt -0.000000 0.500000
vt -0.000000 1.000000
vt 0.688000 0.500000
vt 0.642000 0.500000
vt 0.732000 0.500000
vt 0.558000 0.500000
vt 0.698000 0.500000
vt 0.512000 0.500000
vt 0.218000 0.500000
vt 0.308000 0.500000
vt 0.262000 0.500000
vt 0.392000 0.500000
vt 0.362000 1.000000
vt 0.408000 1.000000
vt 0.318000 1.000000
vt 0.492000 1.000000
vt 0.352000 1.000000
vt 0.538000 1.000000
vt 0.548000 1.000000
vt 0.582000 1.000000
vt 0.788000 1.000000
vt 0.742000 1.000000
s 1
f 2/1/1 3/2/1 1/3/1
f 4/4/2 5/5/2 3/2/2
f 6/6/3 7/7/3 5/5/3
f 8/8/4 9/9/4 7/7/4
f 10/10/5 11/11/5 9/9/5
f 12/12/6 13/13/6 11/11/6
f 14/14/7 15/15/7 13/13/7
f 16/16/8 17/17/8 15/15/8
f 18/18/9 19/19/9 17/17/9
f 20/20/10 21/21/10 19/19/10
f 22/22/11 23/23/11 21/21/11
f 24/24/12 25/25/12 23/23/12
f 26/26/13 27/27/13 25/25/13
f 28/28/14 29/29/14 27/27/14
f 30/30/15 31/31/15 29/29/15
f 32/32/16 33/33/16 31/31/16
f 34/34/17 35/35/17 33/33/17
f 36/36/18 37/37/18 35/35/18
f 22/22/19 50/20/19 51/22/19
f 38/38/20 39/39/20 37/37/20
f 40/40/21 1/41/21 39/39/21
f 12/12/22 45/10/22 46/12/22
f 32/32/23 55/30/23 56/32/23
f 40/40/24 41/42/24 2/42/24
f 6/6/25 44/8/25 8/8/25
f 16/16/26 49/18/26 18/18/26
f 2/1/27 42/4/27 4/4/27
f 26/26/28 54/28/28 28/28/28
f 36/36/29 59/38/29 38/38/29
f 12/12/30 47/14/30 14/14/30
f 24/24/31 51/22/31 52/24/31
f 32/32/32 57/34/32 34/34/32
f 8/8/33 45/10/33 10/10/33
f 18/18/34 50/20/34 20/20/34
f 28/28/35 55/30/35 30/30/35
f 38/38/36 60/40/36 40/40/36
f 6/6/37 42/4/37 43/6/37
f 16/16/38 47/14/38 48/16/38
f 26/26/39 52/24/39 53/26/39
f 36/36/40 57/34/40 58/36/40
f 1/41/41 80/39/41 39/39/41
f 7/7/42 63/5/42 5/5/42
f 17/17/43 68/15/43 15/15/43
f 27/27/44 73/25/44 25/25/44
f 3/2/45 61/3/45 1/3/45
f 37/37/46 78/35/46 35/35/46
f 13/13/47 66/11/47 11/11/47
f 23/23/48 71/21/48 21/21/48
f 33/33/49 76/31/49 31/31/49
f 9/9/50 64/7/50 7/7/50
f 19/19/51 69/17/51 17/17/51
f 29/29/52 74/27/52 27/27/52
f 39/39/53 79/37/53 37/37/53
f 5/5/54 62/2/54 3/2/54
f 15/15/55 67/13/55 13/13/55
f 25/25/56 72/23/56 23/23/56
f 35/35/57 77/33/57 33/33/57
f 11/11/58 65/9/58 9/9/58
f 21/21/59 70/19/59 19/19/59
f 31/31/60 75/29/60 29/29/60
f 64/7/61 81/11/61 63/5/61
f 65/9/61 85/43/61 81/11/61
f 67/13/61 85/43/61 66/11/61
f 68/15/61 89/44/61 67/13/61
f 69/17/61 93/17/61 68/15/61
f 63/5/61 82/45/61 62/2/61
f 81/11/61 86/15/61 82/45/61
f 89/44/61 86/15/61 85/43/61
f 93/17/61 90/17/61 89/44/61
f 70/19/61 94/46/61 93/17/61
f 82/45/61 61/3/61 62/2/61
f 86/15/61 83/47/61 82/45/61
f 90/17/61 87/17/61 86/15/61
f 94/46/61 91/19/61 90/17/61
f 71/21/61 95/48/61 94/46/61
f 83/49/61 80/39/61 61/41/61
f 87/29/61 84/33/61 83/49/61
f 87/29/61 92/50/61 88/51/61
f 91/27/61 96/27/61 92/50/61
f 95/52/61 73/25/61 96/27/61
f 84/33/61 79/37/61 80/39/61
f 88/51/61 78/35/61 84/33/61
f 88/51/61 76/31/61 77/33/61
f 92/50/61 75/29/61 76/31/61
f 96/27/61 74/27/61 75/29/61
f 57/34/62 97/30/62 58/36/62
f 56/32/62 101/53/62 97/30/62
f 54/28/62 101/53/62 55/30/62
f 53/26/62 105/54/62 54/28/62
f 52/24/62 109/24/62 53/26/62
f 58/36/62 98/55/62 59/38/62
f 97/30/62 102/26/62 98/55/62
f 105/54/62 102/26/62 101/53/62
f 109/24/62 106/24/62 105/54/62
f 51/22/62 110/56/62 109/24/62
f 59/38/62 99/57/62 60/40/62
f 98/55/62 103/24/62 99/57/62
f 102/26/62 107/22/62 103/24/62
f 110/56/62 107/22/62 106/24/62
f 110/56/62 49/18/62 111/58/62
f 99/57/62 41/42/62 60/40/62
f 103/24/62 100/24/62 99/57/62
f 107/22/62 104/59/62 103/24/62
f 107/22/62 112/18/62 108/60/62
f 111/58/62 48/16/62 112/18/62
f 100/8/62 42/4/62 41/1/62
f 104/61/62 43/6/62 100/8/62
f 108/62/62 44/8/62 104/61/62
f 108/62/62 46/12/62 45/10/62
f 112/14/62 47/14/62 46/12/62
f 2/1/1 4/4/1 3/2/1
f 4/4/2 6/6/2 5/5/2
f 6/6/3 8/8/3 7/7/3
f 8/8/4 10/10/4 9/9/4
f 10/10/5 12/12/5 11/11/5
f 12/12/6 14/14/6 13/13/6
f 14/14/7 16/16/7 15/15/7
f 16/16/8 18/18/8 17/17/8
f 18/18/9 20/20/9 19/19/9
f 20/20/10 22/22/10 21/21/10
f 22/22/11 24/24/11 23/23/11
f 24/24/12 26/26/12 25/25/12
f 26/26/13 28/28/13 27/27/13
f 28/28/14 30/30/14 29/29/14
f 30/30/15 32/32/15 31/31/15
f 32/32/16 34/34/16 33/33/16
f 34/34/17 36/36/17 35/35/17
f 36/36/18 38/38/18 37/37/18
f 22/22/19 20/20/19 50/20/19
f 38/38/20 40/40/20 39/39/20
f 40/40/21 2/42/21 1/41/21
f 12/12/22 10/10/22 45/10/22
f 32/32/23 30/30/23 55/30/23
f 40/40/24 60/40/24 41/42/24
f 6/6/25 43/6/25 44/8/25
f 16/16/26 48/16/26 49/18/26
f 2/1/27 41/1/27 42/4/27
f 26/26/28 53/26/28 54/28/28
f 36/36/29 58/36/29 59/38/29
f 12/12/30 46/12/30 47/14/30
f 24/24/31 22/22/31 51/22/31
f 32/32/32 56/32/32 57/34/32
f 8/8/33 44/8/33 45/10/33
f 18/18/34 49/18/34 50/20/34
f 28/28/35 54/28/35 55/30/35
f 38/38/36 59/38/36 60/40/36
f 6/6/37 4/4/37 42/4/37
f 16/16/38 14/14/38 47/14/38
f 26/26/39 24/24/39 52/24/39
f 36/36/40 34/34/40 57/34/40
f 1/41/41 61/41/41 80/39/41
f 7/7/42 64/7/42 63/5/42
f 17/17/43 69/17/43 68/15/43
f 27/27/44 74/27/44 73/25/44
f 3/2/45 62/2/45 61/3/45
f 37/37/46 79/37/46 78/35/46
f 13/13/47 67/13/47 66/11/47
f 23/23/48 72/23/48 71/21/48
f 33/33/49 77/33/49 76/31/49
f 9/9/50 65/9/50 64/7/50
f 19/19/51 70/19/51 69/17/51
f 29/29/52 75/29/52 74/27/52
f 39/39/53 80/39/53 79/37/53
f 5/5/54 63/5/54 62/2/54
f 15/15/55 68/15/55 67/13/55
f 25/25/56 73/25/56 72/23/56
f 35/35/57 78/35/57 77/33/57
f 11/11/58 66/11/58 65/9/58
f 21/21/59 71/21/59 70/19/59
f 31/31/60 76/31/60 75/29/60
f 64/7/61 65/9/61 81/11/61
f 65/9/61 66/11/61 85/43/61
f 67/13/61 89/44/61 85/43/61
f 68/15/61 93/17/61 89/44/61
f 69/17/61 70/19/61 93/17/61
f 63/5/61 81/11/61 82/45/61
f 81/11/61 85/43/61 86/15/61
f 89/44/61 90/17/61 86/15/61
f 93/17/61 94/46/61 90/17/61
f 70/19/61 71/21/61 94/46/61
f 82/45/61 83/47/61 61/3/61
f 86/15/61 87/17/61 83/47/61
f 90/17/61 91/19/61 87/17/61
f 94/46/61 95/48/61 91/19/61
f 71/21/61 72/23/61 95/48/61
f 83/49/61 84/33/61 80/39/61
f 87/29/61 88/51/61 84/33/61
f 87/29/61 91/27/61 92/50/61
f 91/27/61 95/52/61 96/27/61
f 95/52/61 72/23/61 73/25/61
f 84/33/61 78/35/61 79/37/61
f 88/51/61 77/33/61 78/35/61
f 88/51/61 92/50/61 76/31/61
f 92/50/61 96/27/61 75/29/61
f 96/27/61 73/25/61 74/27/61
f 57/34/62 56/32/62 97/30/62
f 56/32/62 55/30/62 101/53/62
f 54/28/62 105/54/62 101/53/62
f 53/26/62 109/24/62 105/54/62
f 52/24/62 51/22/62 109/24/62
f 58/36/62 97/30/62 98/55/62
f 97/30/62 101/53/62 102/26/62
f 105/54/62 106/24/62 102/26/62
f 109/24/62 110/56/62 106/24/62
f 51/22/62 50/20/62 110/56/62
f 59/38/62 98/55/62 99/57/62
f 98/55/62 102/26/62 103/24/62
f 102/26/62 106/24/62 107/22/62
f 110/56/62 111/58/62 107/22/62
f 110/56/62 50/20/62 49/18/62
f 99/57/62 100/24/62 41/42/62
f 103/24/62 104/59/62 100/24/62
f 107/22/62 108/60/62 104/59/62
f 107/22/62 111/58/62 112/18/62
f 111/58/62 49/18/62 48/16/62
f 100/8/62 43/6/62 42/4/62
f 104/61/62 44/8/62 43/6/62
f 108/62/62 45/10/62 44/8/62
f 108/62/62 112/14/62 46/12/62
f 112/14/62 48/16/62 47/14/62
