# Blender 4.5.2 LTS
# www.blender.org
mtllib Torus.mtl
o Torus
v 1.250000 0.000000 0.000000
v 1.191511 0.160697 0.000000
v 1.043412 0.246202 0.000000
v 0.875000 0.216506 0.000000
v 0.765077 0.085505 0.000000
v 0.765077 -0.085505 0.000000
v 0.875000 -0.216506 0.000000
v 1.043412 -0.246202 0.000000
v 1.191511 -0.160697 0.000000
v 0.779362 0.000000 -0.977289
v 0.742895 0.160697 -0.931561
v 0.650557 0.246202 -0.815773
v 0.545553 0.216506 -0.684103
v 0.477017 0.085505 -0.598161
v 0.477017 -0.085505 -0.598161
v 0.545553 -0.216506 -0.684103
v 0.650557 -0.246202 -0.815773
v 0.742895 -0.160697 -0.931561
v -0.278151 0.000000 -1.218660
v -0.265136 0.160697 -1.161637
v -0.232181 0.246202 -1.017252
v -0.194706 0.216506 -0.853062
v -0.170246 0.085505 -0.745895
v -0.170246 -0.085505 -0.745895
v -0.194706 -0.216506 -0.853062
v -0.232181 -0.246202 -1.017252
v -0.265136 -0.160697 -1.161637
v -1.126211 0.000000 -0.542355
v -1.073514 0.160697 -0.516977
v -0.940082 0.246202 -0.452720
v -0.788348 0.216506 -0.379648
v -0.689310 0.085505 -0.331954
v -0.689310 -0.085505 -0.331954
v -0.788348 -0.216506 -0.379648
v -0.940082 -0.246202 -0.452720
v -1.073514 -0.160697 -0.516977
v -1.126211 0.000000 0.542354
v -1.073515 0.160697 0.516977
v -0.940082 0.246202 0.452719
v -0.788348 0.216506 0.379648
v -0.689310 0.085505 0.331954
v -0.689310 -0.085505 0.331954
v -0.788348 -0.216506 0.379648
v -0.940082 -0.246202 0.452719
v -1.073515 -0.160697 0.516977
v -0.278151 0.000000 1.218660
v -0.265136 0.160697 1.161637
v -0.232181 0.246202 1.017252
v -0.194706 0.216506 0.853062
v -0.170246 0.085505 0.745895
v -0.170246 -0.085505 0.745895
v -0.194706 -0.216506 0.853062
v -0.232181 -0.246202 1.017252
v -0.265136 -0.160697 1.161637
v 0.779362 0.000000 0.977290
v 0.742894 0.160697 0.931561
v 0.650556 0.246202 0.815773
v 0.545553 0.216506 0.684103
v 0.477017 0.085505 0.598161
v 0.477017 -0.085505 0.598161
v 0.545553 -0.216506 0.684103
v 0.650556 -0.246202 0.815773
v 0.742894 -0.160697 0.931561
vn 1.0000 -0.0000 -0.0000
vn 0.8004 0.5994 -0.0000
vn 0.2644 0.9644 -0.0000
vn -0.4201 0.9075 -0.0000
vn -0.9263 0.3768 -0.0000
vn -0.9263 -0.3769 -0.0000
vn -0.4201 -0.9075 -0.0000
vn 0.2644 -0.9644 -0.0000
vn 0.8004 -0.5994 -0.0000
vn 0.6235 -0.0000 -0.7818
vn 0.4991 0.5994 -0.6258
vn 0.1649 0.9644 -0.2067
vn -0.2620 0.9075 0.3285
vn -0.5775 0.3769 0.7242
vn -0.5775 -0.3769 0.7242
vn -0.2620 -0.9075 0.3285
vn 0.1649 -0.9644 -0.2067
vn 0.4991 -0.5994 -0.6258
vn -0.2225 -0.0000 -0.9749
vn -0.1781 0.5994 -0.7804
vn -0.0588 0.9644 -0.2578
vn 0.0935 0.9075 0.4096
vn 0.2061 0.3769 0.9030
vn 0.2061 -0.3769 0.9030
vn 0.0935 -0.9075 0.4096
vn -0.0588 -0.9644 -0.2578
vn -0.1781 -0.5994 -0.7804
vn -0.9010 -0.0000 -0.4339
vn -0.7212 0.5994 -0.3473
vn -0.2382 0.9644 -0.1147
vn 0.3785 0.9075 0.1823
vn 0.8345 0.3769 0.4019
vn 0.8345 -0.3769 0.4019
vn 0.3785 -0.9075 0.1823
vn -0.2382 -0.9644 -0.1147
vn -0.7212 -0.5994 -0.3473
vn -0.9010 -0.0000 0.4339
vn -0.7212 0.5994 0.3473
vn -0.2382 0.9644 0.1147
vn 0.3785 0.9075 -0.1823
vn 0.8345 0.3769 -0.4019
vn 0.8345 -0.3769 -0.4019
vn 0.3785 -0.9075 -0.1823
vn -0.2382 -0.9644 0.1147
vn -0.7212 -0.5994 0.3473
vn -0.2225 -0.0000 0.9749
vn -0.1781 0.5994 0.7804
vn -0.0588 0.9644 0.2578
vn 0.0935 0.9075 -0.4096
vn 0.2061 0.3768 -0.9031
vn 0.2061 -0.3769 -0.9030
vn 0.0935 -0.9075 -0.4096
vn -0.0588 -0.9644 0.2578
vn -0.1781 -0.5994 0.7804
vn 0.6235 -0.0000 0.7818
vn 0.4991 0.5994 0.6258
vn 0.1649 0.9644 0.2067
vn -0.2620 0.9075 -0.3285
vn -0.5775 0.3769 -0.7242
vn -0.5775 -0.3769 -0.7242
vn -0.2620 -0.9075 -0.3285
vn 0.1649 -0.9644 0.2067
vn 0.4991 -0.5994 0.6258
vt 0.714286 0.555556
vt 0.571429 0.666667
vt 0.571429 0.555556
vt 0.714286 0.666667
vt 0.571429 0.777778
vt 0.714286 0.777778
vt 0.571429 0.888889
vt 0.714286 0.888889
vt 0.571429 1.000000
vt 0.714286 0.000000
vt 0.571429 0.111111
vt 0.571429 0.000000
vt 0.714286 0.111111
vt 0.571429 0.222222
vt 0.714286 0.222222
vt 0.571429 0.333333
vt 0.714286 0.333333
vt 0.571429 0.444444
vt 0.714286 0.444444
vt 0.857143 0.555556
vt 0.857143 0.666667
vt 0.857143 0.777778
vt 0.857143 0.888889
vt 0.714286 1.000000
vt 0.857143 0.000000
vt 0.857143 0.111111
vt 0.857143 0.222222
vt 0.857143 0.333333
vt 1.000000 0.555556
vt 1.000000 0.777778
vt 1.000000 0.888889
vt 0.857143 1.000000
vt 1.000000 0.000000
vt 1.000000 0.111111
vt 1.000000 0.333333
vt 0.857143 0.444444
vt 1.000000 0.444444
vt 0.142857 0.555556
vt -0.000000 0.666667
vt -0.000000 0.555556
vt 0.142857 0.666667
vt -0.000000 0.777778
vt 0.142857 0.777778
vt -0.000000 0.888889
vt 0.142857 0.888889
vt -0.000000 1.000000
vt 0.142857 0.000000
vt -0.000000 0.111111
vt -0.000000 0.000000
vt 0.142857 0.111111
vt -0.000000 0.222222
vt 0.142857 0.222222
vt -0.000000 0.333333
vt 0.142857 0.333333
vt -0.000000 0.444444
vt 0.142857 0.444444
vt 0.285714 0.555556
vt 0.285714 0.666667
vt 0.285714 0.777778
vt 0.285714 1.000000
vt 0.142857 1.000000
vt 0.285714 0.000000
vt 0.285714 0.111111
vt 0.285714 0.222222
vt 0.285714 0.444444
vt 0.428571 0.555556
vt 0.428571 0.666667
vt 0.428571 0.777778
vt 0.285714 0.888889
vt 0.428571 0.888889
vt 0.428571 0.000000
vt 0.428571 0.111111
vt 0.428571 0.333333
vt 0.285714 0.333333
vt 0.428571 0.444444
vt 0.428571 1.000000
vt 0.428571 0.222222
vt 1.000000 0.666667
vt 1.000000 1.000000
vt 1.000000 0.222222
s 1
f 10/1/10 2/2/2 1/3/1
f 11/4/11 3/5/3 2/2/2
f 12/6/12 4/7/4 3/5/3
f 13/8/13 5/9/5 4/7/4
f 14/10/14 6/11/6 5/12/5
f 15/13/15 7/14/7 6/11/6
f 16/15/16 8/16/8 7/14/7
f 17/17/17 9/18/9 8/16/8
f 18/19/18 1/3/1 9/18/9
f 19/20/19 11/4/11 10/1/10
f 20/21/20 12/6/12 11/4/11
f 21/22/21 13/8/13 12/6/12
f 22/23/22 14/24/14 13/8/13
f 23/25/23 15/13/15 14/10/14
f 24/26/24 16/15/16 15/13/15
f 25/27/25 17/17/17 16/15/16
f 26/28/26 18/19/18 17/17/17
f 18/19/18 19/20/19 10/1/10
f 28/29/28 20/21/20 19/20/19
f 20/21/20 30/30/30 21/22/21
f 30/30/30 22/23/22 21/22/21
f 31/31/31 23/32/23 22/23/22
f 32/33/32 24/26/24 23/25/23
f 33/34/33 25/27/25 24/26/24
f 25/27/25 35/35/35 26/28/26
f 35/35/35 27/36/27 26/28/26
f 36/37/36 19/20/19 27/36/27
f 37/38/37 29/39/29 28/40/28
f 38/41/38 30/42/30 29/39/29
f 39/43/39 31/44/31 30/42/30
f 40/45/40 32/46/32 31/44/31
f 41/47/41 33/48/33 32/49/32
f 42/50/42 34/51/34 33/48/33
f 43/52/43 35/53/35 34/51/34
f 44/54/44 36/55/36 35/53/35
f 45/56/45 28/40/28 36/55/36
f 46/57/46 38/41/38 37/38/37
f 47/58/47 39/43/39 38/41/38
f 48/59/48 40/45/40 39/43/39
f 40/45/40 50/60/50 41/61/41
f 50/62/50 42/50/42 41/47/41
f 51/63/51 43/52/43 42/50/42
f 52/64/52 44/54/44 43/52/43
f 44/54/44 54/65/54 45/56/45
f 45/56/45 46/57/46 37/38/37
f 55/66/55 47/58/47 46/57/46
f 56/67/56 48/59/48 47/58/47
f 57/68/57 49/69/49 48/59/48
f 58/70/58 50/60/50 49/69/49
f 59/71/59 51/63/51 50/62/50
f 60/72/60 52/64/52 51/63/51
f 52/64/52 62/73/62 53/74/53
f 53/74/53 63/75/63 54/65/54
f 63/75/63 46/57/46 54/65/54
f 55/66/55 2/2/2 56/67/56
f 2/2/2 57/68/57 56/67/56
f 3/5/3 58/70/58 57/68/57
f 58/70/58 5/9/5 59/76/59
f 5/12/5 60/72/60 59/71/59
f 6/11/6 61/77/61 60/72/60
f 7/14/7 62/73/62 61/77/61
f 8/16/8 63/75/63 62/73/62
f 9/18/9 55/66/55 63/75/63
f 10/1/10 11/4/11 2/2/2
f 11/4/11 12/6/12 3/5/3
f 12/6/12 13/8/13 4/7/4
f 13/8/13 14/24/14 5/9/5
f 14/10/14 15/13/15 6/11/6
f 15/13/15 16/15/16 7/14/7
f 16/15/16 17/17/17 8/16/8
f 17/17/17 18/19/18 9/18/9
f 18/19/18 10/1/10 1/3/1
f 19/20/19 20/21/20 11/4/11
f 20/21/20 21/22/21 12/6/12
f 21/22/21 22/23/22 13/8/13
f 22/23/22 23/32/23 14/24/14
f 23/25/23 24/26/24 15/13/15
f 24/26/24 25/27/25 16/15/16
f 25/27/25 26/28/26 17/17/17
f 26/28/26 27/36/27 18/19/18
f 18/19/18 27/36/27 19/20/19
f 28/29/28 29/78/29 20/21/20
f 20/21/20 29/78/29 30/30/30
f 30/30/30 31/31/31 22/23/22
f 31/31/31 32/79/32 23/32/23
f 32/33/32 33/34/33 24/26/24
f 33/34/33 34/80/34 25/27/25
f 25/27/25 34/80/34 35/35/35
f 35/35/35 36/37/36 27/36/27
f 36/37/36 28/29/28 19/20/19
f 37/38/37 38/41/38 29/39/29
f 38/41/38 39/43/39 30/42/30
f 39/43/39 40/45/40 31/44/31
f 40/45/40 41/61/41 32/46/32
f 41/47/41 42/50/42 33/48/33
f 42/50/42 43/52/43 34/51/34
f 43/52/43 44/54/44 35/53/35
f 44/54/44 45/56/45 36/55/36
f 45/56/45 37/38/37 28/40/28
f 46/57/46 47/58/47 38/41/38
f 47/58/47 48/59/48 39/43/39
f 48/59/48 49/69/49 40/45/40
f 40/45/40 49/69/49 50/60/50
f 50/62/50 51/63/51 42/50/42
f 51/63/51 52/64/52 43/52/43
f 52/64/52 53/74/53 44/54/44
f 44/54/44 53/74/53 54/65/54
f 45/56/45 54/65/54 46/57/46
f 55/66/55 56/67/56 47/58/47
f 56/67/56 57/68/57 48/59/48
f 57/68/57 58/70/58 49/69/49
f 58/70/58 59/76/59 50/60/50
f 59/71/59 60/72/60 51/63/51
f 60/72/60 61/77/61 52/64/52
f 52/64/52 61/77/61 62/73/62
f 53/74/53 62/73/62 63/75/63
f 63/75/63 55/66/55 46/57/46
f 55/66/55 1/3/1 2/2/2
f 2/2/2 3/5/3 57/68/57
f 3/5/3 4/7/4 58/70/58
f 58/70/58 4/7/4 5/9/5
f 5/12/5 6/11/6 60/72/60
f 6/11/6 7/14/7 61/77/61
f 7/14/7 8/16/8 62/73/62
f 8/16/8 9/18/9 63/75/63
f 9/18/9 1/3/1 55/66/55
